HIERARCHY
ROOT Hips
{
    OFFSET   0.000000   0.000000   0.000000
    CHANNELS 6 Xposition Yposition Zposition Zrotation Xrotation Yrotation
    JOINT Chest
    {
        OFFSET   0.000000   8.007230   0.000000
        CHANNELS 3 Zrotation Xrotation Yrotation
        JOINT Chest2
        {
            OFFSET   0.000000  22.077100   0.000000
            CHANNELS 3 Zrotation Xrotation Yrotation
            JOINT Neck
            {
                OFFSET   0.000000  23.254800  -0.000021
                CHANNELS 3 Zrotation Xrotation Yrotation
                JOINT Head
                {
                    OFFSET   0.000000  14.370000   1.956610
                    CHANNELS 3 Zrotation Xrotation Yrotation
                    End Site
                    {
                        OFFSET   0.000000  19.566000   0.000000
                    }
                }
            }
            JOINT LeftCollar
            {
                OFFSET   3.911900  19.017000  -0.467063
                CHANNELS 3 Zrotation Xrotation Yrotation
                JOINT LeftShoulder
                {
                    OFFSET  10.383700   0.000000   0.000000
                    CHANNELS 3 Zrotation Xrotation Yrotation
                    JOINT LeftElbow
                    {
                        OFFSET  26.662100   0.001529   0.000325
                        CHANNELS 3 Zrotation Xrotation Yrotation
                        JOINT LeftWrist
                        {
                            OFFSET  28.869000  -0.000011  -0.000096
                            CHANNELS 3 Zrotation Xrotation Yrotation
                            JOINT LeftFinger0
                            {
                                OFFSET   2.044650  -2.323460   3.252850
                                CHANNELS 3 Zrotation Xrotation Yrotation
                                JOINT LeftFinger01
                                {
                                    OFFSET   3.088130   0.000000   0.000000
                                    CHANNELS 3 Zrotation Xrotation Yrotation
                                    JOINT LeftFinger02
                                    {
                                        OFFSET   2.639460   0.000000   0.000000
                                        CHANNELS 3 Zrotation Xrotation Yrotation
                                        End Site
                                        {
                                            OFFSET   2.582190   0.000000   0.000000
                                        }
                                    }
                                }
                            }
                            JOINT LeftFinger1
                            {
                                OFFSET   8.364480   0.000000   3.252850
                                CHANNELS 3 Zrotation Xrotation Yrotation
                                JOINT LeftFinger11
                                {
                                    OFFSET   4.646930   0.000000   0.000000
                                    CHANNELS 3 Zrotation Xrotation Yrotation
                                    JOINT LeftFinger12
                                    {
                                        OFFSET   2.323460   0.000000   0.000000
                                        CHANNELS 3 Zrotation Xrotation Yrotation
                                        End Site
                                        {
                                            OFFSET   2.273050   0.000000   0.000000
                                        }
                                    }
                                }
                            }
                            JOINT LeftFinger2
                            {
                                OFFSET   8.364480   0.000016   1.078090
                                CHANNELS 3 Zrotation Xrotation Yrotation
                                JOINT LeftFinger21
                                {
                                    OFFSET   5.111620   0.000000   0.000000
                                    CHANNELS 3 Zrotation Xrotation Yrotation
                                    JOINT LeftFinger22
                                    {
                                        OFFSET   2.788160   0.000017   0.000000
                                        CHANNELS 3 Zrotation Xrotation Yrotation
                                        End Site
                                        {
                                            OFFSET   2.727660   0.000000   0.000000
                                        }
                                    }
                                }
                            }
                            JOINT LeftFinger3
                            {
                                OFFSET   7.899780   0.000015  -1.078090
                                CHANNELS 3 Zrotation Xrotation Yrotation
                                JOINT LeftFinger31
                                {
                                    OFFSET   4.646920   0.000000   0.000000
                                    CHANNELS 3 Zrotation Xrotation Yrotation
                                    JOINT LeftFinger32
                                    {
                                        OFFSET   2.323470   0.000000   0.000000
                                        CHANNELS 3 Zrotation Xrotation Yrotation
                                        End Site
                                        {
                                            OFFSET   2.273050   0.000000   0.000000
                                        }
                                    }
                                }
                            }
                            JOINT LeftFinger4
                            {
                                OFFSET   7.435090   0.000000  -3.252850
                                CHANNELS 3 Zrotation Xrotation Yrotation
                                JOINT LeftFinger41
                                {
                                    OFFSET   3.717550   0.000000   0.000000
                                    CHANNELS 3 Zrotation Xrotation Yrotation
                                    JOINT LeftFinger42
                                    {
                                        OFFSET   1.858760   0.000000   0.000000
                                        CHANNELS 3 Zrotation Xrotation Yrotation
                                        End Site
                                        {
                                            OFFSET   1.818440   0.000000   0.000000
                                        }
                                    }
                                }
                            }
                        }
                    }
                }
            }
            JOINT RightCollar
            {
                OFFSET  -3.911900  19.017000  -0.467062
                CHANNELS 3 Zrotation Xrotation Yrotation
                JOINT RightShoulder
                {
                    OFFSET -10.383700   0.000015   0.000000
                    CHANNELS 3 Zrotation Xrotation Yrotation
                    JOINT RightElbow
                    {
                        OFFSET -26.662100   0.001341   0.000385
                        CHANNELS 3 Zrotation Xrotation Yrotation
                        JOINT RightWrist
                        {
                            OFFSET -28.869000   0.000025  -0.000080
                            CHANNELS 3 Zrotation Xrotation Yrotation
                            JOINT RightFinger0
                            {
                                OFFSET  -2.044650  -2.323490   3.252850
                                CHANNELS 3 Zrotation Xrotation Yrotation
                                JOINT RightFinger01
                                {
                                    OFFSET  -3.088130   0.000000   0.000000
                                    CHANNELS 3 Zrotation Xrotation Yrotation
                                    JOINT RightFinger02
                                    {
                                        OFFSET  -2.639460   0.000000   0.000000
                                        CHANNELS 3 Zrotation Xrotation Yrotation
                                        End Site
                                        {
                                            OFFSET  -2.582190   0.000000   0.000000
                                        }
                                    }
                                }
                            }
                            JOINT RightFinger1
                            {
                                OFFSET  -8.364480   0.000000   3.252850
                                CHANNELS 3 Zrotation Xrotation Yrotation
                                JOINT RightFinger11
                                {
                                    OFFSET  -4.646930   0.000000   0.000000
                                    CHANNELS 3 Zrotation Xrotation Yrotation
                                    JOINT RightFinger12
                                    {
                                        OFFSET  -2.323470   0.000000   0.000000
                                        CHANNELS 3 Zrotation Xrotation Yrotation
                                        End Site
                                        {
                                            OFFSET  -2.273050   0.000000   0.000000
                                        }
                                    }
                                }
                            }
                            JOINT RightFinger2
                            {
                                OFFSET  -8.364480   0.000000   1.078090
                                CHANNELS 3 Zrotation Xrotation Yrotation
                                JOINT RightFinger21
                                {
                                    OFFSET  -5.111610   0.000000   0.000000
                                    CHANNELS 3 Zrotation Xrotation Yrotation
                                    JOINT RightFinger22
                                    {
                                        OFFSET  -2.788160   0.000000   0.000000
                                        CHANNELS 3 Zrotation Xrotation Yrotation
                                        End Site
                                        {
                                            OFFSET  -2.727660   0.000000   0.000000
                                        }
                                    }
                                }
                            }
                            JOINT RightFinger3
                            {
                                OFFSET  -7.899780   0.000000  -1.078090
                                CHANNELS 3 Zrotation Xrotation Yrotation
                                JOINT RightFinger31
                                {
                                    OFFSET  -4.646920   0.000000   0.000000
                                    CHANNELS 3 Zrotation Xrotation Yrotation
                                    JOINT RightFinger32
                                    {
                                        OFFSET  -2.323470   0.000000   0.000000
                                        CHANNELS 3 Zrotation Xrotation Yrotation
                                        End Site
                                        {
                                            OFFSET  -2.273050   0.000000   0.000000
                                        }
                                    }
                                }
                            }
                            JOINT RightFinger4
                            {
                                OFFSET  -7.435090   0.000000  -3.252850
                                CHANNELS 3 Zrotation Xrotation Yrotation
                                JOINT RightFinger41
                                {
                                    OFFSET  -3.717550   0.000000   0.000000
                                    CHANNELS 3 Zrotation Xrotation Yrotation
                                    JOINT RightFinger42
                                    {
                                        OFFSET  -1.858770   0.000000   0.000000
                                        CHANNELS 3 Zrotation Xrotation Yrotation
                                        End Site
                                        {
                                            OFFSET  -1.818440   0.000000   0.000000
                                        }
                                    }
                                }
                            }
                        }
                    }
                }
            }
        }
    }
    JOINT LeftHip
    {
        OFFSET   9.783010   0.000000   0.000000
        CHANNELS 3 Zrotation Xrotation Yrotation
        JOINT LeftKnee
        {
            OFFSET   0.000070 -41.789100   0.000028
            CHANNELS 3 Zrotation Xrotation Yrotation
            JOINT LeftAnkle
            {
                OFFSET   0.000087 -41.133200  -0.000100
                CHANNELS 3 Zrotation Xrotation Yrotation
                JOINT LeftToe
                {
                    OFFSET   0.000000  -6.358960  14.674500
                    CHANNELS 3 Zrotation Xrotation Yrotation
                    End Site
                    {
                        OFFSET   0.000000   0.000000   3.913200
                    }
                }
            }
        }
    }
    JOINT RightHip
    {
        OFFSET  -9.783020   0.000000   0.000000
        CHANNELS 3 Zrotation Xrotation Yrotation
        JOINT RightKnee
        {
            OFFSET   0.000044 -41.789100  -0.000870
            CHANNELS 3 Zrotation Xrotation Yrotation
            JOINT RightAnkle
            {
                OFFSET  -0.000090 -41.133200  -0.000245
                CHANNELS 3 Zrotation Xrotation Yrotation
                JOINT RightToe
                {
                    OFFSET   0.000000  -6.358960  14.674500
                    CHANNELS 3 Zrotation Xrotation Yrotation
                    End Site
                    {
                        OFFSET   0.000000   0.000000   3.913200
                    }
                }
            }
        }
    }
}
MOTION
Frames: 6
Frame Time:   0.016667
  0.449765  89.413900  -0.398573  -1.029870  -1.130030   1.733920   0.548964  -0.240597  -0.612302   1.095340  -0.487038  -1.222290  -0.807823   2.299020   0.020893  -1.333290   4.659770   2.046820   0.346115   4.835200  10.171700 -83.365000  -2.201080   5.936720   0.762519   6.892000 -15.244700   9.904240  -5.134280  -0.895277  40.562900  35.622300 -53.465400 -33.700100   0.003186   0.002218 -11.850100   0.016221   0.011521 -36.392500   0.137939  -0.187186 -29.775800   0.004285   0.006214 -20.843000   0.006632   0.004454 -30.830400  -3.723330   6.214190 -46.548600   0.001063  -0.004067 -31.001400   0.005882  -0.001303 -28.396700  -4.091980   7.517710 -38.486900  -0.002338  -0.005102 -25.632300   0.010328  -0.006859 -35.463000  -7.316080  10.135800 -54.168900   0.003081  -0.008507 -36.076500   0.002036   0.000712   3.271410   7.247350   3.081910  76.632200 -12.166800  -4.058430   2.913610  -2.761870  13.893400 -20.804000   2.894480  -0.449570 -33.684200  29.971800  71.724200  31.773200  -0.000348  -0.009635  10.886600  -0.000062  -0.004993  37.195600  -0.060946  -0.080279  30.432800  -0.002971  -0.009476  21.302900  -0.006447   0.001609  29.340900  -2.411990  -4.281700  44.146500  -0.007705  -0.002759  29.401600   0.001503   0.007055  28.863300  -3.605090  -6.508040  43.602500   0.001498   0.001554  29.039300   0.002138   0.004918  39.166400  -4.712340  -5.758830  59.105300  -0.007348  -0.004662  39.364100   0.003998  -0.008207   3.714470   3.863040  -0.193275   0.383643   0.626715  14.704100  -3.639350  -3.369820  -0.191734  -0.000000   0.000000  -0.000000  -1.980050   4.099310  -5.254710   1.543030   0.834619 -13.255900   1.087920  -3.311990  -1.510870  -0.000000   0.000000   0.000000
  0.442774  89.415200  -0.412749  -1.029280  -1.151710   1.730980   0.551473  -0.165212  -0.602700   1.101180  -0.336207  -1.203790  -0.816041   2.271350   0.021021  -1.346240   4.603660   2.061200   0.342549   4.759320  10.150900 -83.362600  -2.017670   5.907520   0.766517   6.886430 -15.327300   9.867980  -5.129690  -0.901589  40.568000  35.548400 -53.523700 -33.728100   0.003193   0.002208 -11.864100   0.016227   0.011533 -36.406400   0.148552  -0.201595 -29.787300   0.004286   0.006221 -20.851100   0.006630   0.004459 -30.800800  -3.723320   6.222380 -46.504600   0.001063  -0.004005 -30.972100   0.005842  -0.001273 -28.396300  -4.091980   7.517790 -38.469300  -0.002340  -0.005054 -25.620600   0.010325  -0.006821 -35.457600  -7.316460  10.137400 -54.164200   0.003093  -0.008471 -36.073300   0.002043   0.000714   3.253870   7.143720   3.061010  76.618700 -11.980400  -4.017760   2.923510  -2.798550  13.950900 -20.786700   2.887500  -0.438070 -33.658800  29.900700  71.655000  31.784400  -0.000344  -0.009623  10.892200  -0.000079  -0.004987  37.177800  -0.067261  -0.088777  30.418200  -0.002961  -0.009491  21.292700  -0.006447   0.001606  29.335600  -2.411750  -4.282540  44.131700  -0.007707  -0.002781  29.391700   0.001504   0.007055  28.855100  -3.602060  -6.507750  43.597000   0.001509   0.001542  29.035600   0.002137   0.004908  39.161600  -4.709190  -5.758900  59.097800  -0.007342  -0.004610  39.359100   0.003994  -0.008220   3.722710   3.880980  -0.204882   0.379921   0.625388  14.712200  -3.638630  -3.363880  -0.186206   0.000000   0.000000  -0.000000  -1.975770   4.119070  -5.251480   1.545250   0.826198 -13.267200   1.078680  -3.301160  -1.497900   0.000000   0.000000  -0.000000
  0.429633  89.418600  -0.438716  -1.028230  -1.192570   1.721930   0.556989  -0.028441  -0.579657   1.113670  -0.062509  -1.159020  -0.829272   2.213210   0.021149  -1.368000   4.485660   2.075400   0.339275   4.614450  10.093500 -83.376600  -1.686690   5.830000   0.767182   6.861370 -15.477100   9.802070  -5.111890  -0.907883  40.347600  35.338600 -53.451400 -33.781400   0.003206   0.002199 -11.890700   0.016241   0.011567 -36.428000   0.159165  -0.216003 -29.805400   0.004293   0.006236 -20.863800   0.006622   0.004469 -30.757000  -3.723340   6.234580 -46.439500   0.001060  -0.003872 -30.928800   0.005750  -0.001213 -28.395900  -4.092000   7.518380 -38.425000  -0.002344  -0.004953 -25.591000   0.010317  -0.006740 -35.436900  -7.319120  10.148500 -54.132100   0.003121  -0.008391 -36.052000   0.002060   0.000722   3.217080   6.934710   3.008490  76.618200 -11.658700  -3.956750   2.949950  -2.932210  14.103700 -20.755700   2.874420  -0.416849 -33.597600  29.745300  71.488800  31.830300  -0.000339  -0.009604  10.915100  -0.000104  -0.004976  37.144900  -0.081648  -0.107907  30.391400  -0.002935  -0.009526  21.274000  -0.006447   0.001595  29.298300  -2.411500  -4.288380  44.076300  -0.007712  -0.002831  29.354800   0.001507   0.007056  28.825700  -3.599020  -6.507460  43.558500   0.001533   0.001510  29.010000   0.002136   0.004881  39.126300  -4.706040  -5.759570  59.044900  -0.007325  -0.004506  39.323800   0.003983  -0.008257   3.739260   3.917100  -0.220187   0.370678   0.620380  14.720300  -3.637470  -3.352730  -0.173650  -0.000000   0.000000   0.000000  -1.967010   4.157330  -5.241710   1.548730   0.809187 -13.283300   1.060680  -3.280240  -1.479220   0.000000   0.000000   0.000000
  0.416070  89.424000  -0.463452  -1.029950  -1.232150   1.707780   0.563699   0.099151  -0.546018   1.128330   0.192925  -1.092990  -0.838890   2.143180   0.021128  -1.384110   4.343260   2.037020   0.340836   4.465270   9.995450 -83.442300  -1.395110   5.714580   0.710151   6.629790 -15.593100   9.722100  -5.063680  -0.875133  40.012500  34.939400 -53.047300 -33.834100   0.003223   0.002215 -11.917100   0.016263   0.011630 -36.435400   0.108669  -0.144388 -29.811700   0.004309   0.006256 -20.868200   0.006605   0.004482 -30.730200  -3.723440   6.242400 -46.399400   0.001053  -0.003691 -30.902000   0.005619  -0.001140 -28.386900  -4.130360   7.590850 -38.352500  -0.002350  -0.004812 -25.542700   0.010305  -0.006627 -35.373100  -7.378020  10.251700 -54.052600   0.003163  -0.008277 -35.999000   0.002084   0.000737   3.183520   6.713240   2.929780  76.684100 -11.377800  -3.916630   2.961540  -3.158510  14.312800 -20.742200   2.857030  -0.389467 -33.515100  29.550500  71.260100  31.919800  -0.000356  -0.009588  10.959900  -0.000115  -0.004965  37.110500  -0.091168  -0.120401  30.363700  -0.002893  -0.009579  21.254600  -0.006448   0.001574  29.195400  -2.421610  -4.323610  43.988500  -0.007719  -0.002904  29.296300   0.001514   0.007064  28.761500  -3.602640  -6.527970  43.472700   0.001565   0.001456  28.952800   0.002135   0.004840  39.044600  -4.712000  -5.780100  58.924700  -0.007297  -0.004371  39.243800   0.003966  -0.008317   3.755670   3.955220  -0.224506   0.358557   0.610832  14.720000  -3.637400  -3.340140  -0.157300  -0.000000   0.000000  -0.000000  -1.957370   4.196490  -5.223550   1.550840   0.789045 -13.291600   1.041010  -3.257070  -1.471190   0.000000   0.000000  -0.000000
  0.400564  89.431200  -0.492904  -1.036120  -1.283470   1.685050   0.572855   0.250484  -0.504773   1.147910   0.495901  -1.012040  -0.847931   2.055350   0.021107  -1.398430   4.164830   1.964570   0.347600   4.283110   9.879810 -83.554400  -1.020230   5.549960   0.535275   6.032620 -15.759900   9.685390  -5.028860  -0.686413  39.768900  34.484800 -52.492800 -33.902300   0.003239   0.002244 -11.951100   0.016289   0.011702 -36.454400  -0.044528   0.063735 -29.829100   0.004330   0.006280 -20.880400   0.006581   0.004497 -30.717400  -3.723580   6.246210 -46.380400   0.001044  -0.003510 -30.889300   0.005473  -0.001075 -28.369000  -4.220730   7.760030 -38.272700  -0.002356  -0.004670 -25.489600   0.010288  -0.006507 -35.278300  -7.499560  10.451200 -53.950400   0.003213  -0.008156 -35.930900   0.002113   0.000755   3.116260   6.404270   2.829010  76.813000 -11.084600  -3.894990   2.998250  -3.536140  14.656200 -20.695000   2.845740  -0.371806 -33.400900  29.294400  70.952600  32.051400  -0.000377  -0.009572  11.025700  -0.000128  -0.004957  37.074500  -0.125517  -0.165333  30.334700  -0.002838  -0.009646  21.234300  -0.006449   0.001546  29.056300  -2.459930  -4.416940  43.821800  -0.007727  -0.002983  29.185300   0.001524   0.007079  28.685400  -3.626540  -6.594000  43.294600   0.001600   0.001388  28.834200   0.002135   0.004786  38.910000  -4.740580  -5.845470  58.729100  -0.007262  -0.004250  39.113600   0.003943  -0.008390   3.781060   4.008540  -0.225137   0.339317   0.597224  14.717800  -3.637390  -3.328020  -0.135507   0.000000   0.000000   0.000000  -1.944170   4.247420  -5.202330   1.553190   0.765896 -13.295000   1.017920  -3.231210  -1.465060  -0.000000   0.000000   0.000000
  0.383389  89.439300  -0.531136  -1.046670  -1.348510   1.651030   0.586114   0.435623  -0.455835   1.175780   0.866545  -0.916152  -0.857147   1.949430   0.021272  -1.412250   3.950160   1.866000   0.362203   4.050550   9.768130 -83.712600  -0.490200   5.309190   0.117102   5.069110 -15.984100   9.827930  -5.159870  -0.298697  39.451000  34.062100 -51.867500 -34.024700   0.003253   0.002278 -12.012400   0.016321   0.011767 -36.641000  -0.322039   0.430585 -29.984100   0.004355   0.006304 -20.988900   0.006553   0.004517 -30.801400  -3.723900   6.223000 -46.505400   0.001032  -0.003377 -30.972600   0.005334  -0.001052 -28.342500  -4.381080   8.057970 -38.209200  -0.002361  -0.004565 -25.447300   0.010267  -0.006394 -35.163000  -7.701380  10.775800 -53.843700   0.003268  -0.008040 -35.859900   0.002147   0.000772   2.981870   5.947450   2.706330  76.990100 -10.775400  -3.942310   3.121790  -4.130260  15.182800 -20.521500   2.884820  -0.416957 -33.129000  28.899400  70.490300  32.287200  -0.000380  -0.009548  11.143600  -0.000152  -0.004959  37.056000  -0.223311  -0.294391  30.320100  -0.002777  -0.009721  21.224100  -0.006449   0.001514  28.893500  -2.549290  -4.608210  43.502400  -0.007735  -0.003056  28.972600   0.001536   0.007092  28.608500  -3.693370  -6.734190  42.956100   0.001633   0.001314  28.608800   0.002134   0.004723  38.696000  -4.825260  -5.983780  58.424100  -0.007222  -0.004205  38.910400   0.003918  -0.008471   3.822100   4.080810  -0.185172   0.307513   0.579462  14.674900  -3.635960  -3.319380  -0.106191   0.000000   0.000000   0.000000  -1.924870   4.312790  -5.186500   1.556340   0.738341 -13.284900   0.991303  -3.204060  -1.456880  -0.000000   0.000000  -0.000000
